<svg xmlns="http://www.w3.org/2000/svg" width="172" height="165" viewBox="0 0 172 165" fill="none">
    <ellipse cx="85.5" cy="132.5" rx="33.5" ry="32.5" fill="#D9EFF8"/>
    <ellipse cx="62" cy="40" rx="18" ry="17" fill="#EDC7D5" fill-opacity="0.4"/>
    <ellipse cx="163" cy="8.5" rx="9" ry="8.5" fill="#CBECAC" fill-opacity="0.4"/>
    <path d="M49.4831 83.4743H30.9051C29.3432 83.4743 28.0726 84.7461 28.0726 86.3067C28.0726 87.8686 29.3444 89.1391 30.9051 89.1391H49.4831C51.045 89.1391 52.3155 87.8673 52.3155 86.3067C52.3168 84.7461 51.045 83.4743 49.4831 83.4743ZM49.4831 103.323H16.9767C15.4148 103.323 14.1442 104.595 14.1442 106.155C14.1442 107.717 15.416 108.988 16.9767 108.988H49.4831C51.045 108.988 52.3155 107.716 52.3155 106.155C52.3168 104.595 51.045 103.323 49.4831 103.323ZM54.132 123.191H3.04729C1.4854 123.191 0.214844 124.462 0.214844 126.023C0.214844 127.585 1.48666 128.855 3.04729 128.855H54.1126C55.6745 128.855 56.945 127.584 56.945 126.023C56.964 124.461 55.6922 123.191 54.1303 123.191H54.132ZM162.294 42.3785C160.696 40.7799 158.535 39.8906 156.284 39.8906H71.1489C68.8967 39.8906 66.7179 40.7799 65.1383 42.3785C63.5397 43.9771 62.6504 46.1383 62.6504 48.3891V123.173C62.6504 125.425 63.5397 127.604 65.1383 129.183C66.7369 130.782 68.8981 131.671 71.1489 131.671H156.284C158.536 131.671 160.715 130.782 162.294 129.183C163.893 127.585 164.782 125.424 164.782 123.173V48.4086C164.782 46.1386 163.893 43.9776 162.294 42.3801V42.3785ZM103.621 45.5745H123.797V73.3593L116.061 64.9506C115.534 64.3691 114.789 64.0423 114.009 64.0423C113.228 64.0423 112.465 64.3514 111.92 64.9138L103.62 73.595L103.621 45.5745ZM159.12 123.189C159.12 123.934 158.81 124.66 158.285 125.187C157.758 125.714 157.032 126.021 156.287 126.021H71.1524C70.4075 126.021 69.6817 125.712 69.1547 125.187C68.6277 124.66 68.3199 123.934 68.3199 123.189V48.4055C68.3199 47.6607 68.61 46.9348 69.1547 46.4079C69.6817 45.8809 70.4075 45.5731 71.1524 45.5731H97.9565V80.6413C97.9565 81.8042 98.6646 82.8391 99.7363 83.2749C100.808 83.7107 102.043 83.4383 102.841 82.6035L113.937 71.0178L124.542 82.5679C125.341 83.4394 126.576 83.7117 127.665 83.2937C128.755 82.8757 129.482 81.823 129.482 80.6424V45.5742H156.286C157.031 45.5742 157.757 45.8642 158.284 46.4089C158.811 46.9359 159.119 47.6617 159.119 48.4066L159.12 123.189Z" fill="#231F20"/>
    <mask id="mask0_2602_15908" style="mask-type:alpha" maskUnits="userSpaceOnUse" x="0" y="39" width="165" height="93">
    <path d="M51.8155 86.3063V86.3067C51.8155 87.5913 50.7687 88.6391 49.4831 88.6391H30.9051C29.6204 88.6391 28.5726 87.5923 28.5726 86.3067C28.5726 85.0221 29.6195 83.9743 30.9051 83.9743H49.4831C50.769 83.9743 51.8166 85.0224 51.8155 86.3063ZM51.8155 106.155V106.155C51.8155 107.44 50.7687 108.488 49.4831 108.488H16.9767C15.692 108.488 14.6442 107.441 14.6442 106.155C14.6442 104.871 15.6911 103.823 16.9767 103.823H49.4831C50.769 103.823 51.8166 104.871 51.8155 106.155ZM56.445 126.017V126.023C56.445 127.308 55.3982 128.355 54.1126 128.355H3.04729C1.76266 128.355 0.714844 127.309 0.714844 126.023C0.714844 124.738 1.76169 123.691 3.04729 123.691H54.1303C55.4175 123.691 56.4606 124.737 56.445 126.017ZM65.4918 42.7321L65.4939 42.7299C66.9773 41.2287 69.027 40.3906 71.1489 40.3906H156.284C158.356 40.3906 160.348 41.1915 161.842 42.6346L161.941 42.7338C163.445 44.2366 164.282 46.27 164.282 48.4086V123.173C164.282 125.292 163.445 127.325 161.941 128.83L161.939 128.832C160.455 130.333 158.406 131.171 156.284 131.171H71.1489C69.0301 131.171 66.9963 130.334 65.4918 128.83L65.4897 128.828C63.9885 127.344 63.1504 125.295 63.1504 123.173V48.3891C63.1504 46.2703 63.9874 44.2365 65.4918 42.7321ZM103.621 45.0745H103.121L103.121 45.5745L103.12 73.5949L103.12 74.8415L103.982 73.9405L112.279 65.2617C112.28 65.2612 112.28 65.2608 112.28 65.2603C112.727 64.8003 113.358 64.5423 114.009 64.5423C114.649 64.5423 115.259 64.8103 115.69 65.2864L115.693 65.2891L123.429 73.6978L124.297 74.6413V73.3593V45.5745V45.0745H123.797H103.621ZM158.638 125.54L158.639 125.54C159.255 124.922 159.62 124.07 159.62 123.189L159.619 48.4066C159.619 47.5273 159.257 46.6764 158.64 46.0582C158.015 45.4134 157.158 45.0742 156.286 45.0742H129.482H128.982V45.5742V80.6424C128.982 81.6163 128.382 82.4831 127.486 82.8269C126.584 83.1731 125.567 82.9466 124.91 82.2299L124.91 82.2297L114.305 70.6796L113.944 70.2868L113.575 70.6719L102.48 82.2577L102.48 82.258C101.822 82.9464 100.804 83.1692 99.9246 82.8117C99.0387 82.4515 98.4565 81.5979 98.4565 80.6413V45.5731V45.0731H97.9565H71.1524C70.273 45.0731 69.4221 45.4348 68.804 46.0515C68.1591 46.677 67.8199 47.5334 67.8199 48.4055V123.189C67.8199 124.07 68.1827 124.922 68.8011 125.54L68.8016 125.541C69.4194 126.157 70.2711 126.521 71.1524 126.521H156.287C157.168 126.521 158.02 126.159 158.638 125.54Z" fill="#231F20" stroke="white"/>
    </mask>
    <g mask="url(#mask0_2602_15908)">
    <rect x="91" y="46" width="50" height="43" fill="#428BC1"/>
    </g>
    </svg>